<svg xmlns:xlink="http://www.w3.org/1999/xlink" width="165" height="40" viewBox="0 0 165 40" fill="none" xmlns="http://www.w3.org/2000/svg">
<path fill-rule="evenodd" clip-rule="evenodd" d="M153.259 0.264821C151.883 0.964829 150.891 1.49652 150.81 1.57734C150.761 1.62638 150.649 1.66651 150.562 1.66651C150.474 1.66651 150.389 1.70218 150.372 1.74565C150.344 1.81643 149.69 2.17145 147.099 3.52187C146.64 3.76096 146.036 4.08421 145.756 4.24083C145.475 4.39744 144.871 4.72403 144.412 4.96703C143.954 5.21058 143.203 5.61075 142.745 5.85709C142.286 6.10399 141.703 6.41107 141.448 6.54038C141.194 6.66912 140.922 6.81235 140.846 6.85805C140.769 6.90376 140.54 7.01857 140.337 7.11387C140.133 7.20862 139.945 7.31284 139.92 7.34516C139.894 7.37749 139.665 7.50735 139.41 7.63386C138.732 7.96993 136.953 8.90625 136.631 9.0963C136.478 9.18659 135.874 9.51095 135.288 9.81749C134.702 10.124 133.973 10.5114 133.667 10.6791C133.361 10.8463 132.694 11.2013 132.185 11.4677C131.675 11.7341 130.987 12.0986 130.656 12.2781C130.325 12.4576 129.658 12.8131 129.174 13.069C128.69 13.3242 128.023 13.6804 127.692 13.8593C127.361 14.0387 126.636 14.4194 126.082 14.7058C125.527 14.9923 125.027 15.2626 124.97 15.3072C124.913 15.3518 124.262 15.7029 123.523 16.0875C120.569 17.6263 119.639 18.1234 119.062 18.4751L118.815 18.6256L119.546 20.0155C119.947 20.7802 120.496 21.8442 120.765 22.3809C121.034 22.917 121.277 23.3768 121.305 23.4025C121.332 23.4281 121.499 23.7419 121.675 24.0991C121.851 24.4569 122.021 24.7701 122.053 24.7958C122.084 24.8214 122.256 25.1352 122.435 25.4924C122.613 25.8503 122.827 26.2682 122.909 26.4215C122.991 26.5748 123.059 26.7526 123.06 26.8161C123.06 26.8802 123.097 26.9326 123.142 26.9326C123.187 26.9326 123.248 27.0056 123.278 27.0948C123.308 27.1845 123.602 27.7591 123.931 28.3722C124.261 28.9852 124.679 29.7794 124.86 30.1372C125.041 30.4945 125.402 31.1845 125.663 31.6699C126.15 32.5761 127.253 34.6856 127.8 35.7568C127.97 36.089 128.129 36.3816 128.155 36.4072C128.181 36.4323 128.372 36.7879 128.58 37.1964C128.944 37.9137 129.636 39.2112 129.685 39.268C129.711 39.2992 130.956 38.6483 131.848 38.1366C132.172 37.951 132.535 37.7738 132.655 37.7437C132.774 37.7136 132.92 37.6306 132.98 37.5592C133.039 37.4873 133.166 37.4288 133.261 37.4288C133.357 37.4288 133.435 37.3959 133.435 37.3553C133.435 37.3146 133.571 37.2182 133.736 37.1407C133.902 37.0627 134.404 36.8035 134.852 36.5638C135.724 36.0979 136.001 36.0483 136.524 36.2679C136.707 36.3443 137.007 36.4072 137.19 36.4072C137.374 36.4072 137.599 36.4474 137.691 36.497C137.94 36.6307 139.96 36.4351 140.537 36.2216C140.799 36.1241 141.211 35.9519 141.451 35.8388C141.938 35.6091 142.137 35.6604 142.24 36.0427C142.579 37.3068 143.834 38.7597 145.16 39.4207C147.422 40.5488 150.325 39.9864 151.938 38.1071C152.181 37.8245 152.421 37.5459 152.472 37.4879C153.001 36.8893 153.39 35.5216 153.389 34.2704C153.387 32.9206 153.261 32.4741 152.467 31.0106C152.282 30.6701 151.454 29.8458 151.002 29.5515C150.791 29.4149 150.598 29.2817 150.573 29.2555C150.473 29.1541 149.665 28.7902 149.539 28.7902C149.466 28.7902 149.355 28.7395 149.293 28.6776C149.1 28.4842 146.335 28.521 145.987 28.7216C145.835 28.8097 145.644 28.8821 145.566 28.8827C145.487 28.8827 145.369 28.9351 145.304 28.9992C145.136 29.1653 144.864 28.8058 144.78 28.3059C144.743 28.0907 144.681 27.8505 144.641 27.7719C144.601 27.6933 144.459 27.3946 144.328 27.1087C142.643 23.4521 137.782 22.2922 134.487 24.7607C133.809 25.2684 132.771 26.5302 132.547 27.1182C132.518 27.1951 132.435 27.3684 132.363 27.5039C132.29 27.6398 132.231 27.8332 132.231 27.9341C132.231 28.035 132.168 28.2674 132.092 28.4508C131.904 28.9022 131.906 31.0039 132.094 31.5306C132.168 31.7346 132.229 31.9608 132.23 32.0322C132.235 32.5042 133.192 34.0068 134.005 34.82C134.653 35.4676 134.651 35.5344 133.979 35.8739C133.54 36.0946 133.036 36.361 132.601 36.6012C132.381 36.7232 131.493 37.1931 130.888 37.5085C130.041 37.9499 130.139 38.0285 129.125 36.0817C128.726 35.3154 128.243 34.3958 128.052 34.0386C127.861 33.6808 127.554 33.0956 127.369 32.7378C126.5 31.0524 125.849 29.814 125.588 29.3475C125.309 28.8476 125.037 28.3254 124.911 28.0473C124.877 27.9703 124.69 27.6153 124.496 27.2575C124.302 26.8997 123.926 26.1891 123.661 25.6786C122.811 24.0445 122.077 22.654 120.963 20.5695C120.116 18.9862 120.111 19.0324 121.183 18.4678C121.63 18.2332 122.328 17.8626 122.736 17.6441C123.144 17.4256 123.79 17.0795 124.172 16.8744C124.554 16.6699 125.221 16.316 125.654 16.088C126.087 15.8601 126.691 15.5379 126.997 15.3724C127.303 15.2063 128.053 14.8084 128.665 14.4874C129.276 14.1663 130.13 13.7132 130.564 13.4803C131.269 13.1007 131.822 12.8076 133.528 11.9069C134.219 11.5419 135.738 10.7315 136.585 10.2756C136.967 10.0694 137.571 9.74782 137.928 9.56C138.284 9.37218 138.785 9.10243 139.04 8.96031C139.294 8.81875 140.003 8.44366 140.614 8.12654C141.629 7.60098 142.24 7.27828 144.273 6.19093C144.656 5.98639 145.343 5.62134 145.802 5.37945C146.26 5.13701 146.927 4.78255 147.284 4.59194C147.641 4.40078 148.266 4.06861 148.674 3.85292C149.081 3.63779 149.706 3.30284 150.063 3.10889C150.42 2.91549 151.149 2.52592 151.684 2.24279C152.219 1.96022 152.801 1.65202 152.978 1.55839C153.599 1.22789 153.58 1.21173 154.379 2.73491C154.701 3.34798 155.098 4.10038 155.262 4.40691C155.426 4.71344 155.687 5.21504 155.843 5.52157C155.999 5.82811 156.32 6.43393 156.557 6.86864C156.794 7.30281 157.227 8.11763 157.519 8.67997C157.812 9.24176 158.187 9.95236 158.353 10.2589C158.519 10.5654 158.863 11.213 159.118 11.6985C159.373 12.1839 159.728 12.8527 159.908 13.1849C160.087 13.5171 160.513 14.3319 160.856 14.9962C161.198 15.6606 161.593 16.413 161.733 16.6682C163.554 19.9888 163.594 20.1476 162.72 20.5879C161.657 21.1235 161.608 21.2383 162.118 21.9957C162.166 22.0676 164.664 20.73 164.767 20.5773C164.854 20.4464 164.77 20.1872 164.501 19.7586C164.381 19.568 164.282 19.3534 164.282 19.2821C164.282 19.2108 164.22 19.1004 164.143 19.0369C164.067 18.9733 164.004 18.8479 164.004 18.7582C164.004 18.6685 163.951 18.5509 163.886 18.4963C163.82 18.4422 163.505 17.8832 163.184 17.254C162.864 16.6253 162.468 15.8601 162.305 15.5535C162.142 15.247 161.765 14.5364 161.467 13.9746C161.168 13.4123 160.768 12.6599 160.577 12.3026C160.386 11.9448 160.073 11.3596 159.883 11.0018C159.691 10.6446 159.264 9.82919 158.933 9.19049C158.326 8.02009 157.725 6.88091 157.217 5.93957C157.065 5.65868 156.701 4.9687 156.408 4.40691C154.455 0.665542 154.068 -0.00883068 153.883 8.66306e-05C153.82 0.00287329 153.539 0.122144 153.259 0.264821ZM152.332 3.05092C151.951 3.24376 151.388 3.54082 151.082 3.7108C150.776 3.88023 150.068 4.25754 149.507 4.54791C148.947 4.83884 148.176 5.24458 147.794 5.44912C147.411 5.65422 146.682 6.04156 146.172 6.3102C145.663 6.57939 144.975 6.94611 144.644 7.12502C144.313 7.30448 143.687 7.63888 143.255 7.8685C142.822 8.09812 142.385 8.34279 142.285 8.41301C142.184 8.48323 142.031 8.54064 141.944 8.54064C141.858 8.54064 141.774 8.57631 141.757 8.62034C141.74 8.66437 141.434 8.85442 141.077 9.0428C140.721 9.23173 140.367 9.42067 140.29 9.46414C140.214 9.50705 139.88 9.67983 139.549 9.84758C138.316 10.4718 137.834 10.7248 137.789 10.77C137.764 10.795 137.305 11.0408 136.77 11.315C136.235 11.5892 135.527 11.9599 135.195 12.1388C134.864 12.3177 134.177 12.6822 133.667 12.9497C133.157 13.2172 132.49 13.5728 132.185 13.74C131.879 13.9072 131.285 14.2271 130.864 14.4506C130.444 14.6741 129.736 15.0525 129.29 15.291C128.844 15.5301 128.321 15.8038 128.127 15.8991C127.555 16.1817 127.556 16.1828 128.591 18.1078C129.274 19.3774 129.702 20.1861 130.262 21.2662C130.961 22.6144 131.664 23.9509 132.02 24.6102C132.365 25.2494 132.427 25.2467 133.183 24.5639C133.522 24.2574 134.04 23.8751 134.335 23.7151C135.007 23.3495 135.016 23.2915 134.538 22.4082C134.323 22.0097 134.027 21.4479 133.881 21.1592C133.449 20.3059 133.271 20.2853 132.215 20.968C131.789 21.2445 131.503 21.2066 131.304 20.8482C131.219 20.6949 131.016 20.3277 130.852 20.0317C130.502 19.3991 130.528 19.2141 131.007 18.9705C131.196 18.8747 131.622 18.6439 131.953 18.4584C134.978 16.7641 134.509 16.6927 135.737 19.0369C136.072 19.6756 136.587 20.6576 136.882 21.2199C137.177 21.7817 137.456 22.3296 137.504 22.4372C137.581 22.6149 137.687 22.6378 138.639 22.6863C139.655 22.7381 139.904 22.7838 140.892 23.0993C142.77 23.6978 144.575 25.3113 145.285 27.0251C145.402 27.306 145.534 27.5757 145.58 27.6242C145.626 27.6727 145.663 27.8143 145.663 27.9386C145.663 28.1855 145.566 28.1838 146.728 27.9592C146.932 27.9202 147.641 27.6042 148.303 27.257C148.965 26.9103 149.945 26.3992 150.48 26.1222C152.317 25.1692 152.253 25.2333 152.184 24.4246C152.112 23.5897 152.45 22.2343 152.913 21.5031C153.467 20.6275 154.154 19.952 154.843 19.6048C155.068 19.4917 155.313 19.3635 155.389 19.32C156.723 18.5587 159.423 18.9984 160.675 20.18L161.029 20.5149L161.614 20.2034C162.435 19.7664 162.456 19.8823 161.087 17.3186C160.896 16.9608 160.543 16.292 160.302 15.8322C159.78 14.8357 159.046 13.4686 158.756 12.9525C158.642 12.7485 158.333 12.1633 158.071 11.6522C157.809 11.1411 157.349 10.2634 157.05 9.70156C156.75 9.13977 156.334 8.34557 156.125 7.93649C155.915 7.52797 155.56 6.85917 155.335 6.45065C155.109 6.04156 154.801 5.45637 154.651 5.14983C154.5 4.8433 154.25 4.3835 154.097 4.12824C153.943 3.87299 153.793 3.60101 153.763 3.52465C153.733 3.44774 153.67 3.32234 153.622 3.24599C153.575 3.16908 153.496 3.01247 153.446 2.89766C153.325 2.61509 153.147 2.63961 152.332 3.05092ZM30.7856 6.7739C30.7034 6.8235 30.3904 6.88927 30.0909 6.91992C29.7913 6.95057 29.4628 7.01076 29.3605 7.05368C29.2588 7.09604 28.8492 7.24596 28.4512 7.38641C25.9201 8.27702 23.5702 10.4985 22.4157 13.0918C22.2223 13.526 22.0328 13.9234 21.9944 13.9746C21.9561 14.0253 21.8944 14.2137 21.8572 14.3926C21.8199 14.571 21.7632 14.7593 21.731 14.8106C21.6988 14.8613 21.6187 15.1333 21.5526 15.4142C20.9662 17.9144 20.9395 21.7109 21.4981 23.2419C21.5681 23.4348 21.6259 23.714 21.6259 23.8634C21.6259 24.0127 21.6626 24.1576 21.7077 24.1855C21.7532 24.2139 21.8183 24.3884 21.8533 24.574C21.8877 24.7596 21.9511 24.9797 21.9939 25.0627C22.0361 25.1458 22.2729 25.6251 22.5202 26.1272C23.9448 29.0259 26.7888 31.2904 29.8413 31.9564C31.7511 32.3727 31.8289 32.3454 31.7961 31.2764L31.7694 30.4159L31.3848 30.2298C30.7539 29.9249 30.471 29.5749 30.2098 28.774C30.1287 28.5249 30.1181 10.3809 30.1987 10.0733C30.3504 9.49702 31.1897 8.63316 31.5982 8.63316C31.7733 8.63316 31.8278 8.31436 31.7966 7.47168L31.7694 6.72931L31.3525 6.70646C31.123 6.69364 30.8679 6.7243 30.7856 6.7739ZM33.6347 6.82127C33.5602 7.01634 33.5569 8.19788 33.6302 8.38905C33.6602 8.46763 33.8709 8.62201 34.0982 8.73292C34.9036 9.12361 35.2449 9.74113 35.351 10.9979C35.53 13.128 35.4027 28.2908 35.2009 28.8632C35.0147 29.3899 34.4817 30.0085 33.942 30.3245C33.4518 30.611 33.3473 32.0734 33.8086 32.1893C34.2072 32.2897 35.9252 31.9274 37.0495 31.5066C37.5592 31.3154 39.0288 30.5748 39.1338 30.456C39.1588 30.4271 39.3884 30.2621 39.6429 30.0893C40.8546 29.2673 42.3597 27.423 43.0539 25.9082C43.6142 24.6865 43.6725 24.5394 43.6725 24.346C43.6725 24.2418 43.7142 24.1309 43.7653 24.0991C43.8165 24.0679 43.8582 23.933 43.8582 23.7998C43.8582 23.6672 43.9176 23.3456 43.991 23.0859C44.3767 21.716 44.5068 19.2442 44.2745 17.6982C44.1983 17.1915 44.1361 16.6559 44.1361 16.5083C44.1361 16.36 44.071 16.0217 43.9916 15.757C43.9121 15.4917 43.7815 15.0447 43.702 14.7638C43.6225 14.4829 43.5208 14.1803 43.4758 14.0917C43.4313 14.003 43.3946 13.8888 43.3946 13.8386C43.3946 13.5427 42.4247 11.7826 41.8311 11.0018C41.0408 9.96184 38.767 7.98331 38.3618 7.98331C38.289 7.98331 38.1778 7.92033 38.1145 7.84398C38.0511 7.76706 37.9294 7.70464 37.8438 7.70464C37.7582 7.70464 37.6487 7.6673 37.6003 7.62216C37.552 7.57646 37.2207 7.4466 36.8639 7.33402C36.5076 7.22088 36.1325 7.09269 36.0302 7.04922C35.824 6.96172 34.778 6.77501 34.121 6.70925C33.782 6.67525 33.6819 6.69866 33.6347 6.82127ZM1.65809 7.23314C0.245231 7.30058 0.0418056 7.4048 0.0418056 8.06189C0.0418056 8.61421 0.226334 8.80704 1.03225 9.09741C1.97323 9.43683 1.89486 8.49048 1.89319 19.5156C1.89153 30.6645 2.03604 29.4735 0.615398 30.0536C-0.244433 30.4048 -0.191632 31.4085 0.700991 31.6766C1.07449 31.7892 11.2796 31.7903 11.8688 31.6783C12.9937 31.4637 12.8848 29.9087 11.7448 29.9054C11.3958 29.9043 10.7133 29.5548 10.5387 29.2879C10.3798 29.0443 10.3681 28.4602 10.3242 18.1897C10.2986 12.2268 10.2436 7.3134 10.2008 7.27104C10.1124 7.18242 3.33995 7.15233 1.65809 7.23314ZM12.5674 7.21308L12.1706 7.25097L12.1973 8.19788C12.2228 9.13085 12.2267 9.14479 12.4552 9.16875C14.1593 9.34877 16.0518 10.4367 16.9544 11.7553C17.3524 12.3366 17.852 13.3404 17.9543 13.7628C18.1638 14.6317 19.4483 14.7716 19.6756 13.9501C19.8229 13.4184 19.8062 7.36523 19.6573 7.26881C19.54 7.19245 13.2972 7.14341 12.5674 7.21308ZM46.4515 7.21642C45.4027 7.39978 45.3516 8.70672 46.3832 8.96198C46.5238 8.99709 46.6616 9.06286 46.6894 9.108C46.7178 9.15371 46.8184 9.19049 46.9134 9.19049C47.1947 9.19049 47.4476 9.61685 47.5615 10.2845C47.756 11.4193 47.6526 28.8515 47.4492 29.2243C47.2614 29.5682 46.8251 29.9048 46.5672 29.9048C45.5089 29.9048 45.3044 31.3946 46.3259 31.6632C46.7778 31.7825 56.3827 31.831 57.227 31.7184C58.5336 31.5445 58.7315 30.2147 57.491 29.9439C57.3548 29.9138 57.033 29.8079 56.7751 29.7081C55.9202 29.3765 55.9931 30.451 55.9931 18.1284V7.26324L55.6957 7.2036C55.3717 7.13839 46.8284 7.1501 46.4515 7.21642ZM57.8689 7.20806C57.6716 7.25042 57.6605 7.29779 57.6605 8.07583C57.6605 9.03053 57.7533 9.19049 58.3047 9.19049C59.2284 9.19049 60.0554 9.64081 60.4123 10.3369L60.6585 10.8162L60.6963 13.6029C60.7446 17.1876 60.6813 17.7461 60.1716 18.2232C59.966 18.4154 59.7159 18.5726 59.6147 18.5726C59.5141 18.5726 59.4074 18.6116 59.3774 18.6601C59.3479 18.708 59.1267 18.7749 58.8855 18.8089C58.6448 18.8424 58.2813 18.9243 58.0773 18.9901L57.7066 19.1104L57.6799 19.8723C57.6483 20.7557 57.6905 20.832 58.2874 20.9797C59.8276 21.3604 59.9621 21.4406 60.3156 22.1864L60.5623 22.7058L60.6035 26.2822C60.6257 28.249 60.6818 29.8982 60.7274 29.9466C60.773 29.9951 60.8102 30.0977 60.8102 30.174C60.8102 30.5385 61.6951 31.5127 62.2375 31.7463C63.0985 32.1163 63.3041 32.1542 64.7009 32.1994C67.1642 32.2796 68.128 31.9659 69.5947 30.6065C70.8003 29.4891 71.1604 28.3137 70.4657 27.7658C70.0799 27.4609 69.7098 27.5273 69.1573 28.0004C68.153 28.8598 68.0357 28.6564 68.0357 26.0604C68.0357 21.9556 67.2309 20.9363 63.2285 19.9721C62.1247 19.7057 62.1164 19.6382 63.1468 19.3139C63.5176 19.1974 63.8605 19.0664 63.9088 19.0229C63.9572 18.9795 64.0478 18.9438 64.1106 18.9438C64.2379 18.9438 65.4167 18.411 65.5735 18.2822C65.6285 18.2377 65.907 18.0119 66.1932 17.7818C66.7457 17.337 67.4477 16.4169 67.6455 15.8785C68.3386 13.9919 68.2958 12.3305 67.511 10.7137C67.2626 10.2026 66.2054 9.01437 65.7658 8.75354C65.6641 8.69279 65.3378 8.49494 65.0416 8.31325C64.7448 8.13156 64.4458 7.98331 64.3774 7.98331C64.3085 7.98331 64.1345 7.92312 63.9905 7.85011C63.5793 7.64222 62.7672 7.42598 62.3965 7.42598C62.2114 7.42598 61.9329 7.38919 61.7784 7.34516C61.4611 7.25376 58.1896 7.13895 57.8689 7.20806ZM73.3925 7.20806C72.3176 7.39421 72.4332 8.67329 73.5587 9.04558C73.8605 9.14535 74.1946 9.33149 74.308 9.46358L74.513 9.70156L74.5164 19.3941C74.5203 30.7185 74.6726 29.4478 73.2408 30.0492C72.3526 30.422 72.481 31.5557 73.4281 31.7084C74.2257 31.8366 82.7851 31.7864 82.8696 31.6526C82.9691 31.4944 82.9274 7.37247 82.8273 7.27215C82.7484 7.19301 73.83 7.13226 73.3925 7.20806ZM85.1267 7.22812L84.8488 7.28776L84.8221 8.19454C84.8021 8.87281 84.8255 9.10912 84.9149 9.13253C84.9805 9.1498 85.3468 9.23563 85.7286 9.32313C87.9296 9.8264 89.5798 11.1317 90.2579 12.9062C90.3263 13.0851 90.4397 13.3632 90.5102 13.5243C90.5808 13.6848 90.6381 13.8498 90.6381 13.8905C90.6381 14.153 91.1572 14.4851 91.5674 14.4851C92.3727 14.4851 92.3483 14.6011 92.3783 10.7126L92.405 7.33067L92.1793 7.24484C91.9281 7.14898 85.5636 7.13393 85.1267 7.22812ZM96.011 7.2114C95.224 7.32789 94.9923 7.52741 94.9923 8.0853C94.9923 8.50831 95.2313 8.80147 96.0116 9.33651C96.2406 9.49368 96.5152 9.78628 96.6224 9.98692C96.7291 10.1876 96.9759 10.6446 97.171 11.0018C97.3667 11.3596 97.7724 12.1326 98.0731 12.7206C98.3743 13.3081 98.6989 13.9239 98.7951 14.0894C98.8918 14.255 99.2153 14.8608 99.5148 15.4365C99.8144 16.0117 100.237 16.817 100.454 17.2255C100.772 17.8252 101.804 19.7948 102.132 20.4302C102.172 20.5066 102.228 20.632 102.258 20.7089C102.288 20.7852 102.401 20.9942 102.508 21.1731C102.697 21.4847 103.43 22.8669 104.085 24.1459C104.255 24.4775 104.415 24.7701 104.441 24.7958C104.467 24.8214 104.645 25.1558 104.838 25.5393C105.22 26.2956 105.285 26.4198 105.443 26.7002C106.646 28.8325 106.709 29.2667 105.923 30.0052C104.972 30.8986 105.199 31.5869 106.487 31.7173C107.317 31.8014 116.329 31.792 117.018 31.7061C117.666 31.6259 118.001 31.267 117.909 30.7542C117.819 30.2498 117.734 30.135 117.249 29.8564C116.73 29.5571 116.298 29.1742 116.298 29.0126C116.298 28.9501 116.264 28.8844 116.223 28.8676C116.182 28.8504 116.022 28.5856 115.867 28.2791C115.584 27.7162 114.57 25.7661 113.718 24.1459C113.463 23.6605 113.134 23.0335 112.987 22.7526C112.839 22.4711 112.363 21.5516 111.928 20.7089C111.494 19.8656 111.002 18.9271 110.837 18.6222C110.671 18.3179 110.158 17.3353 109.697 16.4397C109.235 15.5435 108.781 14.6852 108.688 14.532C108.594 14.3787 108.492 14.1903 108.46 14.114C108.355 13.8637 108.043 13.2434 107.711 12.6276C106.178 9.77959 106.139 9.61796 106.848 9.00657C107.558 8.39239 107.589 7.72526 106.923 7.36077C106.638 7.20472 96.9481 7.07207 96.011 7.2114ZM109.935 7.22199C108.942 7.53856 109.054 8.53284 110.14 9.04837C111.315 9.6057 111.559 10.6579 110.787 11.8378C110.296 12.5874 110.257 12.6498 110.061 12.9971L109.891 13.2986L110.184 13.8687C110.919 15.2994 110.811 15.2922 111.715 13.9746C111.96 13.6168 112.347 13.0522 112.575 12.7206C112.803 12.3885 113.025 12.1025 113.069 12.0858C113.113 12.0686 113.148 12.0162 113.148 11.9688C113.148 11.8267 114.181 10.4712 114.582 10.0872C114.961 9.72386 115.531 9.32703 116.317 8.87894C117.087 8.43976 117.217 8.05075 116.771 7.51515L116.504 7.19357L113.32 7.17518C111.57 7.1657 110.047 7.18632 109.935 7.22199ZM151.499 9.07178C153.017 9.6057 154.205 11.0921 155.305 13.8353C155.566 14.4829 155.483 16.4007 155.169 17.0243C154.764 17.8297 153.541 18.8513 152.984 18.8513C152.887 18.8513 152.781 18.8931 152.749 18.9438C152.28 19.7062 148.442 17.8096 148.442 16.8148C148.442 16.7596 148.411 16.7145 148.372 16.7139C148.221 16.7128 147.29 14.8942 147.07 14.1697C146.074 10.882 148.548 8.03458 151.499 9.07178ZM149.457 11.397C149.239 11.6723 149.23 12.8393 149.443 13.2401C149.495 13.3376 149.743 13.8353 149.995 14.3458C151.057 16.5016 152.026 17.3036 152.747 16.6242C153.276 16.1259 153.203 15.3206 152.495 13.8353C151.396 11.5302 150.146 10.527 149.457 11.397ZM143.452 13.0612C144.308 13.3287 145.435 14.1786 146.019 14.9962C146.376 15.4961 146.96 16.4336 146.96 16.5066C146.96 16.5857 147.1 16.9424 147.422 17.6898C147.467 17.7923 147.524 18.0013 147.55 18.1546C147.576 18.3079 147.645 18.6629 147.705 18.9438C147.95 20.112 147.524 21.3843 146.608 22.2131C144.541 24.0857 141.47 22.9683 139.922 19.7798C139.811 19.5502 139.676 19.281 139.623 19.1823C139.411 18.7889 138.993 17.1196 138.993 16.6682C138.993 14.3441 141.379 12.4141 143.452 13.0612ZM14.9891 14.557C14.7445 14.7549 14.4927 15.242 14.4927 15.5184C14.4927 16.2051 13.6057 17.395 12.7119 17.9077C12.0983 18.2594 12.0844 18.2889 12.0844 19.2225C12.0844 20.1499 12.1117 20.2106 12.628 20.4419C13.4317 20.8025 14.4927 22.1836 14.4927 22.8691C14.4927 23.1405 14.9379 23.9419 15.1164 23.9927C15.7255 24.1649 15.8584 24.1543 16.1479 23.9096L16.4381 23.665V19.2893V14.9137L16.1891 14.6529C15.8928 14.3425 15.312 14.2962 14.9891 14.557ZM87.5456 14.639C87.4105 14.775 87.276 14.9945 87.2477 15.1266C86.9714 16.4035 86.4868 17.1314 85.4324 17.8525L84.8488 18.2521L84.8227 19.2269L84.7966 20.2023L85.3218 20.4776C86.1872 20.9318 87.211 22.3636 87.211 23.1204C87.211 24.0534 88.6461 24.4848 88.9846 23.6532C89.1469 23.2542 89.2197 15.6344 89.0663 15.1127C88.8484 14.3726 88.0569 14.1262 87.5456 14.639ZM141.741 15.4917C140.798 16.4787 143.001 20.8945 144.436 20.8945C145.638 20.8945 145.651 19.7307 144.474 17.4579C143.456 15.4906 142.44 14.7599 141.741 15.4917ZM155.945 19.748C154.63 20.3237 153.878 20.9162 153.471 21.7009C153.36 21.9138 153.228 22.1646 153.178 22.2577C151.92 24.6013 153.615 27.9302 156.389 28.5606C160.556 29.5069 163.544 24.5963 160.868 21.2004C160.5 20.7339 159.334 19.8729 159.07 19.8729C158.993 19.8729 158.811 19.8104 158.665 19.7341C158.295 19.5401 156.398 19.5496 155.945 19.748ZM158.63 20.4954C160.491 21.1921 161.686 23.4571 161.053 25.0884C160.619 26.2053 160.556 26.3089 159.95 26.8986C157.826 28.9657 154.509 27.923 153.595 24.9017C153.121 23.3356 154.405 20.9234 155.902 20.5634C156.054 20.5272 156.219 20.4653 156.27 20.4263C156.554 20.2073 157.972 20.2485 158.63 20.4954ZM157.15 20.9613C156.135 21.0689 154.649 22.003 154.649 22.5325C154.649 22.5687 154.576 22.679 154.486 22.7782C154.222 23.0708 154.259 24.9853 154.538 25.5014C156.037 28.2646 159.984 27.5841 160.442 24.4831C160.6 23.4136 159.863 21.804 159.049 21.4418C158.947 21.3966 158.801 21.3219 158.724 21.2757C158.589 21.1932 158.027 21.0271 157.659 20.9602C157.557 20.9418 157.328 20.9424 157.15 20.9613ZM158.187 22.1769C158.302 22.2911 158.353 26.1284 158.245 26.4449C158.182 26.6266 158.109 26.6539 157.673 26.6539C156.977 26.6539 156.973 26.6433 156.943 24.837C156.92 23.3567 156.907 23.2637 156.735 23.2302C156.375 23.1611 156.148 22.4004 156.41 22.1379C156.531 22.0164 158.061 22.0498 158.187 22.1769ZM101.421 23.6583C101.29 23.8494 100.53 24.9992 99.7316 26.212C98.0081 28.832 97.6101 29.2778 96.5291 29.8023C96.0972 30.0118 95.7026 30.1835 95.6514 30.1835C95.2929 30.1835 95.1362 31.185 95.4525 31.4564C96.0666 31.9837 102.094 31.9703 102.678 31.4403C103.174 30.9894 102.952 30.3005 102.189 29.9277C100.583 29.1419 100.57 28.4485 102.119 26.0749C102.813 25.012 102.809 24.842 102.066 23.6616C101.79 23.2235 101.719 23.2235 101.421 23.6583ZM91.2172 24.4257C91.0516 24.5767 90.916 24.7261 90.916 24.7573C90.916 25.8213 88.212 29.1619 87.3505 29.1619C87.2738 29.1619 87.211 29.2037 87.211 29.2544C87.211 29.3057 87.1648 29.3475 87.1093 29.3475C87.0531 29.3475 86.8758 29.406 86.7152 29.4774C86.5546 29.5487 86.111 29.6819 85.7286 29.7739C85.3468 29.8653 84.9817 29.979 84.9183 30.0269C84.7799 30.13 84.7549 31.6292 84.8899 31.7128C85.115 31.8527 92.4961 31.8109 92.5856 31.6699C92.684 31.5133 92.7118 25.2773 92.6162 24.798C92.4917 24.1732 91.7191 23.9676 91.2172 24.4257ZM140.22 24.7423C142.173 25.4339 143.478 26.9616 143.897 29.0505C144.037 29.7466 144.039 29.736 143.578 30.2392C143.348 30.4895 143.023 30.9036 142.855 31.1588C142.573 31.588 142.474 31.7998 142.14 32.6915C142.073 32.8704 142.001 33.2945 141.981 33.6345C141.938 34.3295 141.854 34.446 141.091 34.8662C139.192 35.9112 136.917 35.7301 135.135 34.3908C133.633 33.2633 132.776 31.4119 132.929 29.6262C132.987 28.9412 133.201 28.0857 133.356 27.9124C133.4 27.8639 133.435 27.7535 133.435 27.6672C133.435 27.379 134.409 26.1702 135.125 25.5694C136.317 24.5689 138.657 24.1894 140.22 24.7423ZM151.453 26.5436C148.686 27.9938 148.86 27.8427 149.67 28.0896C150.356 28.2992 150.534 28.2886 151.057 28.0071C151.275 27.8901 151.744 27.6376 152.101 27.4464C153.027 26.9488 153.022 26.9554 152.794 26.4388C152.56 25.9093 152.68 25.9004 151.453 26.5436ZM137.339 26.4076C137.122 26.5051 137.063 26.6461 136.954 27.3367C136.912 27.5997 136.809 28.191 136.725 28.6508C136.433 30.242 136.431 30.3162 136.687 30.2348C138.597 29.6267 140.337 31.0847 139.136 32.288C138.676 32.7495 137.742 32.7456 136.831 32.278L136.206 31.9569L136.109 32.2083C135.879 32.7985 135.849 33.7125 136.059 33.7136C136.119 33.7142 136.276 33.771 136.408 33.8396C137.24 34.2754 138.574 34.3824 139.623 34.0971C142.475 33.3218 141.932 29.1391 138.947 28.8905L138.298 28.8364L138.27 28.4452C138.236 27.9625 138.238 27.9614 139.827 27.9302L140.985 27.9079L141.012 27.1878L141.039 26.4678L139.9 26.4633C139.274 26.4605 138.485 26.4276 138.147 26.3897C137.8 26.3513 137.448 26.3591 137.339 26.4076ZM149.094 29.7137C153.486 31.2809 153.548 37.1011 149.19 38.7503C148.215 39.1192 146.185 38.9726 145.571 38.4889C145.494 38.4287 145.346 38.3534 145.241 38.3217C144.767 38.1773 143.669 36.9166 143.37 36.1737C142.27 33.4389 143.543 30.6701 146.358 29.6769C146.937 29.4729 148.476 29.4935 149.094 29.7137ZM146.589 30.3663C145.828 30.6556 145.676 30.7302 145.3 31.0033C141.908 33.4673 144.234 39.0529 148.35 38.3261C152.063 37.6713 153.058 33.1859 150.003 30.8696C149.213 30.2705 147.506 30.0191 146.589 30.3663ZM149.728 32.6179C151.235 33.5409 150.902 36.6006 149.269 36.8258C148.373 36.9495 147.766 36.5839 147.368 35.6816C146.54 33.8056 148.184 31.6727 149.728 32.6179ZM146.661 32.6218C146.832 32.8314 146.859 36.3147 146.693 36.5789C146.582 36.755 145.952 36.7366 145.768 36.5527C145.623 36.4067 145.579 35.8376 145.572 34.0129C145.571 33.6796 145.533 33.5994 145.337 33.5097C145.034 33.3714 144.951 33.0354 145.145 32.7372C145.319 32.4725 146.468 32.385 146.661 32.6218ZM148.534 33.8296C148.234 34.3228 148.276 35.166 148.621 35.5746L148.893 35.8962L149.2 35.5924C149.488 35.3076 149.507 35.2497 149.506 34.6633C149.503 33.6117 148.953 33.1396 148.534 33.8296Z" fill="#231F14"></path>
</svg>