<?xml version="1.0" encoding="UTF-8" standalone="no"?>
<!-- Created with Inkscape (http://www.inkscape.org/) -->

<svg
   id="svg2985"
   version="1.1"
   inkscape:version="1.4 (86a8ad7, 2024-10-11)"
   width="281.02701"
   height="30.925541"
   xml:space="preserve"
   sodipodi:docname="Landshypotek_Bank.svg"
   xmlns:inkscape="http://www.inkscape.org/namespaces/inkscape"
   xmlns:sodipodi="http://sodipodi.sourceforge.net/DTD/sodipodi-0.dtd"
   xmlns="http://www.w3.org/2000/svg"
   xmlns:svg="http://www.w3.org/2000/svg"
   xmlns:rdf="http://www.w3.org/1999/02/22-rdf-syntax-ns#"
   xmlns:cc="http://creativecommons.org/ns#"
   xmlns:dc="http://purl.org/dc/elements/1.1/"><metadata
     id="metadata2991"><rdf:RDF><cc:Work
         rdf:about=""><dc:format>image/svg+xml</dc:format><dc:type
           rdf:resource="http://purl.org/dc/dcmitype/StillImage" /></cc:Work></rdf:RDF></metadata><defs
     id="defs2989"><clipPath
       clipPathUnits="userSpaceOnUse"
       id="clipPath2999"><path
         d="M 0,0 H 595.275 V 841.89 H 0 Z"
         id="path3001"
         inkscape:connector-curvature="0" /></clipPath><clipPath
       clipPathUnits="userSpaceOnUse"
       id="clipPath3027"><path
         d="M 43.937,727.087 H 188.504 V 805.04 H 43.937 Z"
         id="path3029"
         inkscape:connector-curvature="0" /></clipPath><clipPath
       clipPathUnits="userSpaceOnUse"
       id="clipPath3091"><path
         d="m 52.447,730.903 h 128.894 v 68.468 H 52.447 Z"
         id="path3093"
         inkscape:connector-curvature="0" /></clipPath></defs><sodipodi:namedview
     pagecolor="#ffffff"
     bordercolor="#666666"
     borderopacity="1"
     objecttolerance="10"
     gridtolerance="10"
     guidetolerance="10"
     inkscape:pageopacity="0"
     inkscape:pageshadow="2"
     inkscape:window-width="1920"
     inkscape:window-height="1001"
     id="namedview2987"
     showgrid="false"
     fit-margin-left="0.5"
     fit-margin-bottom="0.5"
     fit-margin-top="0.5"
     fit-margin-right="0.5"
     inkscape:zoom="0.7340923"
     inkscape:cx="642.97092"
     inkscape:cy="-4.7677928"
     inkscape:window-x="-9"
     inkscape:window-y="-9"
     inkscape:window-maximized="1"
     inkscape:current-layer="g3023"
     inkscape:showpageshadow="2"
     inkscape:pagecheckerboard="0"
     inkscape:deskcolor="#d1d1d1" /><g
     id="g2993"
     inkscape:groupmode="layer"
     inkscape:label="20140314_pelare3uk_2013"
     transform="matrix(1.25,0,0,-1.25,-65.551,1023.5631)"><g
       id="g3019"
       transform="matrix(1.7441756,0,0,1.7441756,55.637874,818.84965)"><path
         d="m 0,0 h -1.833 v -11.531 h 7.252 v 1.724 H 0 Z"
         style="fill:#662d21;fill-opacity:1;fill-rule:nonzero;stroke:none"
         id="path3021"
         inkscape:connector-curvature="0" /></g><g
       id="g3023"
       transform="matrix(6.2002273,0,0,6.2002273,-272.70408,-3800.8607)"><g
         id="g3025"
         clip-path="url(#clipPath3027)"
         transform="matrix(0.28130833,0,0,0.28130833,37.688766,535.4881)"><g
           id="g3031"
           transform="translate(63.2329,734.799)"><path
             d="m 0,0 c -1.293,0 -1.442,0.619 -1.442,1.085 0,0.979 0.793,1.175 2.086,1.415 0.394,0.071 1.055,0.215 1.574,0.445 V 1.939 C 2.218,1.189 1.616,0 0,0 m 4.132,0.119 c -0.161,0 -0.345,0 -0.345,0.671 v 3.818 c 0,1.26 -0.552,2.763 -3.182,2.763 -2.083,0 -3.359,-1.095 -3.414,-2.928 L -2.816,4.219 h 1.645 l 0.008,0.21 c 0.042,1.078 0.592,1.559 1.784,1.559 0.59,0 1.581,-0.155 1.581,-1.194 0,-0.644 -0.52,-0.749 -1.697,-0.926 L 0.463,3.861 C -1.548,3.549 -3.213,3.123 -3.213,1.054 c 0,-1.513 1.124,-2.452 2.934,-2.452 1.023,0 1.903,0.358 2.568,1.041 0.222,-0.648 0.715,-0.964 1.497,-0.964 0.367,0 0.601,0.075 0.764,0.14 l 0.137,0.055 V 0.213 L 4.375,0.15 C 4.283,0.13 4.201,0.119 4.132,0.119"
             style="fill:#662d21;fill-opacity:1;fill-rule:nonzero;stroke:none"
             id="path3033"
             inkscape:connector-curvature="0" /></g><g
           id="g3035"
           transform="translate(72.5432,742.2007)"><path
             d="m 0,0 c -0.945,0 -1.736,-0.308 -2.358,-0.916 v 0.73 h -1.693 v -8.459 h 1.693 v 5.153 c 0,1.178 0.817,2 1.986,2 1.03,0 1.597,-0.501 1.597,-1.411 v -5.742 h 1.693 v 5.851 C 2.918,-1.045 1.827,0 0,0"
             style="fill:#662d21;fill-opacity:1;fill-rule:nonzero;stroke:none"
             id="path3037"
             inkscape:connector-curvature="0" /></g><g
           id="g3039"
           transform="translate(80.0933,734.8146)"><path
             d="m 0,0 c -1.311,0 -2.094,1.096 -2.094,2.932 0,1.424 0.546,2.947 2.078,2.947 1.467,0 2.343,-1.102 2.343,-2.947 C 2.327,1.837 2.024,0 0,0 m 2.249,6.424 c -0.601,0.618 -1.422,0.962 -2.327,0.962 -2.237,0 -3.74,-1.784 -3.74,-4.439 0,-2.696 1.48,-4.439 3.771,-4.439 0.935,0 1.676,0.286 2.296,0.891 V -1.259 H 3.942 V 10.272 H 2.249 Z"
             style="fill:#662d21;fill-opacity:1;fill-rule:nonzero;stroke:none"
             id="path3041"
             inkscape:connector-curvature="0" /></g><g
           id="g3043"
           transform="translate(88.8175,738.7206)"><path
             d="m 0,0 c -1.468,0.297 -1.982,0.458 -1.982,1.105 0,0.6 0.496,0.93 1.396,0.93 1.079,0 1.565,-0.385 1.676,-1.328 L 1.113,0.514 H 2.84 L 2.811,0.758 c -0.21,1.771 -1.374,2.707 -3.366,2.707 -1.915,0 -3.105,-0.928 -3.105,-2.422 0,-1.967 1.684,-2.313 3.168,-2.619 1.581,-0.332 1.922,-0.551 1.922,-1.229 0,-0.71 -0.584,-1.101 -1.644,-1.101 -1.304,0 -1.945,0.491 -2.08,1.593 l -0.023,0.191 h -1.715 l 0.016,-0.233 c 0.135,-1.962 1.475,-3.043 3.771,-3.043 2.087,0 3.384,1.017 3.384,2.655 C 3.139,-0.634 1.471,-0.297 0,0"
             style="fill:#662d21;fill-opacity:1;fill-rule:nonzero;stroke:none"
             id="path3045"
             inkscape:connector-curvature="0" /></g><g
           id="g3047"
           transform="translate(96.8587,742.2007)"><path
             d="M 0,0 C -0.945,0 -1.736,-0.308 -2.358,-0.916 V 2.886 H -4.051 V -8.645 h 1.693 v 5.153 c 0,1.178 0.817,2 1.986,2 1.03,0 1.597,-0.501 1.597,-1.411 v -5.742 h 1.693 v 5.851 C 2.918,-1.045 1.827,0 0,0"
             style="fill:#662d21;fill-opacity:1;fill-rule:nonzero;stroke:none"
             id="path3049"
             inkscape:connector-curvature="0" /></g><g
           id="g3051"
           transform="translate(104.4003,736.8758)"><path
             d="m 0,0 c -0.128,-0.344 -0.275,-0.753 -0.387,-1.068 -0.125,0.314 -0.287,0.724 -0.415,1.069 l -1.947,5.138 h -1.842 l 3.298,-8.01 -0.278,-0.708 c -0.282,-0.707 -0.566,-0.841 -0.992,-0.841 -0.322,0 -0.574,0.049 -0.749,0.144 l -0.049,0.027 h -0.336 v -1.482 l 0.136,-0.055 c 0.384,-0.158 0.723,-0.187 1.215,-0.187 1.022,0 1.751,0.35 2.453,2.138 L 3.692,5.139 H 1.883 Z"
             style="fill:#662d21;fill-opacity:1;fill-rule:nonzero;stroke:none"
             id="path3053"
             inkscape:connector-curvature="0" /></g><g
           id="g3055"
           transform="translate(112.3915,740.6935)"><path
             d="m 0,0 c 1.292,0 2.063,-1.102 2.063,-2.947 0,-1.836 -0.777,-2.932 -2.079,-2.932 -2.024,0 -2.326,1.837 -2.326,2.932 C -2.342,-2.256 -2.173,0 0,0 m 0.124,1.507 c -0.963,0 -1.75,-0.321 -2.389,-0.977 V 1.321 H -3.958 V -9.714 h 1.693 v 3.206 c 0.615,-0.593 1.357,-0.863 2.343,-0.863 2.288,0 3.709,1.701 3.709,4.439 0,2.697 -1.438,4.439 -3.663,4.439"
             style="fill:#662d21;fill-opacity:1;fill-rule:nonzero;stroke:none"
             id="path3057"
             inkscape:connector-curvature="0" /></g><g
           id="g3059"
           transform="translate(120.8016,734.8301)"><path
             d="M 0,0 C -1.75,0 -2.373,1.522 -2.373,2.947 -2.373,4.38 -1.75,5.91 0,5.91 1.738,5.91 2.358,4.38 2.358,2.947 2.358,1.522 1.738,0 0,0 m 0,7.386 c -2.374,0 -4.097,-1.867 -4.097,-4.439 0,-2.572 1.723,-4.439 4.097,-4.439 2.403,0 4.082,1.826 4.082,4.439 0,2.614 -1.679,4.439 -4.082,4.439"
             style="fill:#662d21;fill-opacity:1;fill-rule:nonzero;stroke:none"
             id="path3061"
             inkscape:connector-curvature="0" /></g><g
           id="g3063"
           transform="translate(127.8164,744.5438)"><path
             d="M 0,0 H -1.693 V -2.529 H -2.857 V -3.99 h 1.164 v -5.275 c 0,-1.141 0.705,-1.77 1.987,-1.77 0.342,0 0.697,0.038 1.053,0.114 l 0.174,0.036 v 1.481 h -0.3 L 1.187,-9.415 C 1.069,-9.454 0.813,-9.512 0.589,-9.512 0.149,-9.512 0,-9.379 0,-8.985 v 4.995 h 1.552 v 1.461 H 0 Z"
             style="fill:#662d21;fill-opacity:1;fill-rule:nonzero;stroke:none"
             id="path3065"
             inkscape:connector-curvature="0" /></g><g
           id="g3067"
           transform="translate(133.5722,740.7866)"><path
             d="M 0,0 C 1.23,0 1.972,-0.757 2.108,-2.139 H -2.228 C -2.078,-1.346 -1.591,0 0,0 m 0,1.43 c -1.147,0 -2.184,-0.467 -2.921,-1.313 -0.709,-0.814 -1.099,-1.924 -1.099,-3.126 0,-2.614 1.685,-4.439 4.097,-4.439 1.931,0 3.264,1.047 3.659,2.872 l 0.057,0.264 H 2.127 L 2.085,-4.476 C 1.832,-5.458 1.157,-5.957 0.077,-5.957 c -1.54,0 -2.217,1.218 -2.354,2.435 h 6.188 v 0.218 C 3.911,-0.384 2.413,1.43 0,1.43"
             style="fill:#662d21;fill-opacity:1;fill-rule:nonzero;stroke:none"
             id="path3069"
             inkscape:connector-curvature="0" /></g><g
           id="g3071"
           transform="translate(145.4972,742.0144)"><path
             d="M 0,0 H -2.238 L -5.453,-3.13 V 3.073 H -7.147 V -8.459 h 1.694 v 3.337 l 0.921,0.873 2.761,-4.21 h 2.002 l -3.57,5.322 z"
             style="fill:#662d21;fill-opacity:1;fill-rule:nonzero;stroke:none"
             id="path3073"
             inkscape:connector-curvature="0" /></g><g
           id="g3075"
           transform="translate(149.8041,738.7229)"><path
             d="m 0,0 h 3.18 c 1.34,0 2.109,-0.673 2.109,-1.846 0,-0.45 -0.147,-0.833 -0.429,-1.13 C 4.515,-3.306 3.981,-3.474 3.273,-3.474 H 0 Z M 2.917,1.616 H 0 v 3.101 h 3.102 c 1.114,0 1.753,-0.548 1.753,-1.504 0,-1.015 -0.707,-1.597 -1.938,-1.597 M 5.275,0.961 c 0.927,0.455 1.413,1.251 1.413,2.33 0,0.813 -0.268,1.52 -0.774,2.043 -0.66,0.693 -1.585,1.03 -2.828,1.03 H -1.833 V -5.167 h 5.168 c 1.219,0 2.263,0.399 2.937,1.123 0.566,0.602 0.866,1.389 0.866,2.276 0,1.277 -0.686,2.265 -1.863,2.729"
             style="fill:#662d21;fill-opacity:1;fill-rule:nonzero;stroke:none"
             id="path3077"
             inkscape:connector-curvature="0" /></g><g
           id="g3079"
           transform="translate(160.5872,734.799)"><path
             d="m 0,0 c -1.292,0 -1.442,0.619 -1.442,1.085 0,0.979 0.793,1.175 2.087,1.415 C 1.038,2.571 1.7,2.715 2.219,2.945 V 1.939 C 2.219,1.189 1.616,0 0,0 M 4.375,0.15 C 4.283,0.13 4.201,0.119 4.133,0.119 c -0.162,0 -0.346,0 -0.346,0.671 v 3.818 c 0,1.26 -0.552,2.763 -3.181,2.763 -2.084,0 -3.361,-1.095 -3.416,-2.928 L -2.816,4.219 h 1.645 l 0.008,0.21 c 0.042,1.078 0.592,1.559 1.784,1.559 0.591,0 1.582,-0.155 1.582,-1.194 0,-0.644 -0.52,-0.749 -1.698,-0.926 L 0.464,3.861 C -1.548,3.549 -3.212,3.123 -3.212,1.054 c 0,-1.513 1.123,-2.452 2.933,-2.452 1.024,0 1.903,0.358 2.568,1.041 0.223,-0.648 0.715,-0.964 1.497,-0.964 0.367,0 0.601,0.075 0.764,0.14 l 0.137,0.055 V 0.155 H 4.399 Z"
             style="fill:#662d21;fill-opacity:1;fill-rule:nonzero;stroke:none"
             id="path3081"
             inkscape:connector-curvature="0" /></g><g
           id="g3083"
           transform="translate(169.8976,742.2007)"><path
             d="m 0,0 c -0.945,0 -1.736,-0.308 -2.358,-0.916 v 0.73 H -4.05 v -8.459 h 1.692 v 5.153 c 0,1.178 0.817,2 1.986,2 1.03,0 1.597,-0.501 1.597,-1.411 v -5.742 h 1.693 v 5.851 C 2.918,-1.045 1.828,0 0,0"
             style="fill:#662d21;fill-opacity:1;fill-rule:nonzero;stroke:none"
             id="path3085"
             inkscape:connector-curvature="0" /></g></g></g><g
       id="g3087"
       transform="matrix(1.7441756,0,0,1.7441756,-39.025165,-480.71278)"><g
         id="g3089"
         clip-path="url(#clipPath3091)"><g
           id="g3095"
           transform="translate(177.7703,738.8779)"><path
             d="M 0,0 3.339,3.137 H 1.101 L -2.115,0.006 V 6.209 H -3.807 V -5.322 h 1.692 v 3.336 l 0.922,0.874 2.762,-4.21 h 2 z"
             style="fill:#662d21;fill-opacity:1;fill-rule:nonzero;stroke:none"
             id="path3097"
             inkscape:connector-curvature="0" /></g></g></g></g></svg>
