<?xml version="1.0" encoding="UTF-8" standalone="no"?>
<!DOCTYPE svg PUBLIC "-//W3C//DTD SVG 1.1//EN" "http://www.w3.org/Graphics/SVG/1.1/DTD/svg11.dtd">
<svg xmlns="http://www.w3.org/2000/svg" version="1.1" viewBox="0.00 0.00 501.00 100.00">
<path fill="#005aa0" d="
  M 0.00 90.71
  L 0.00 2.45
  L 24.53 2.46
  Q 25.06 2.46 25.06 2.99
  L 25.05 65.39
  Q 25.05 65.97 25.64 65.97
  L 56.75 65.97
  A 0.40 0.40 0.0 0 1 57.15 66.37
  L 57.15 90.38
  A 0.38 0.38 0.0 0 1 56.77 90.76
  L 0.00 90.71
  Z"
/>
<path fill="#005aa0" d="
  M 63.59 27.23
  L 32.40 27.23
  A 0.40 0.40 0.0 0 1 32.00 26.83
  L 32.00 2.87
  A 0.40 0.40 0.0 0 1 32.40 2.47
  L 88.82 2.46
  A 0.40 0.40 0.0 0 1 89.22 2.86
  L 89.20 90.34
  A 0.40 0.40 0.0 0 1 88.80 90.74
  L 64.39 90.72
  A 0.40 0.40 0.0 0 1 63.99 90.32
  L 63.99 27.63
  A 0.40 0.40 0.0 0 0 63.59 27.23
  Z"
/>
<rect fill="#e30713" x="32.01" y="34.20" width="25.12" height="24.84" rx="0.26"/>
<path fill="#005aa0" d="
  M 224.76 64.61
  Q 224.79 74.88 224.76 84.61
  C 224.76 86.58 226.78 87.40 228.48 87.69
  A 0.49 0.47 89.0 0 1 228.88 88.09
  L 228.92 88.40
  Q 228.98 88.75 228.63 88.75
  L 214.58 88.74
  Q 211.81 88.74 214.31 87.57
  Q 215.16 87.17 216.00 86.88
  A 2.20 2.19 -9.9 0 0 217.47 84.80
  Q 217.41 68.57 217.50 55.33
  C 217.51 53.33 218.66 51.00 220.62 50.25
  Q 226.18 48.12 231.16 51.89
  Q 232.84 53.17 230.73 53.01
  L 227.14 52.75
  Q 224.86 52.58 224.82 54.86
  L 224.74 60.03
  Q 224.72 61.33 226.03 61.28
  L 230.50 61.08
  Q 230.93 61.06 230.91 61.50
  L 230.90 61.79
  A 0.87 0.87 0.0 0 1 230.21 62.60
  L 225.62 63.54
  A 1.10 1.08 84.2 0 0 224.76 64.61
  Z"
/>
<path fill="#005aa0" d="
  M 308.00 64.97
  L 309.18 65.67
  A 1.48 1.44 -84.1 0 1 309.82 66.48
  C 311.06 70.40 307.86 72.14 304.43 71.31
  A 2.43 2.40 2.6 0 1 302.59 69.32
  C 301.44 61.78 310.73 60.81 316.10 60.82
  C 323.19 60.84 324.70 65.69 324.52 71.77
  Q 324.30 79.03 324.55 84.86
  Q 324.65 87.35 327.14 87.23
  Q 327.75 87.20 328.37 87.13
  Q 330.28 86.93 330.28 85.01
  Q 330.34 69.00 330.27 54.06
  Q 330.26 51.05 327.14 51.11
  A 0.85 0.85 0.0 0 1 326.33 50.56
  L 326.23 50.29
  A 0.35 0.35 0.0 0 1 326.56 49.82
  L 337.45 49.85
  A 0.60 0.60 0.0 0 1 338.04 50.45
  L 338.03 85.46
  A 1.31 1.30 10.4 0 0 338.88 86.68
  Q 339.94 87.08 341.28 87.35
  Q 341.73 87.45 341.95 87.84
  Q 342.04 87.99 342.03 88.16
  Q 342.00 88.68 341.48 88.67
  C 335.95 88.57 330.57 88.31 325.42 89.06
  C 322.95 89.42 319.46 89.54 317.68 87.37
  A 0.77 0.76 -33.3 0 0 316.74 87.18
  C 312.36 89.37 303.10 91.29 301.96 84.27
  C 301.40 80.80 301.53 75.87 305.69 74.80
  Q 310.26 73.64 315.88 74.12
  Q 316.95 74.21 316.99 73.14
  Q 317.15 69.10 316.55 65.86
  Q 316.33 64.67 315.13 64.50
  Q 311.83 64.02 308.15 64.32
  Q 307.07 64.41 308.00 64.97
  Z
  M 316.93 85.37
  L 316.85 76.99
  A 0.69 0.69 0.0 0 0 316.16 76.30
  L 313.07 76.33
  A 3.60 3.45 -0.5 0 0 309.50 79.81
  L 309.52 82.67
  A 3.60 3.45 -0.5 0 0 313.15 86.09
  L 316.24 86.06
  A 0.69 0.69 0.0 0 0 316.93 85.37
  Z"
/>
<rect fill="#005aa0" x="-3.36" y="-3.24" transform="translate(388.65,53.76) rotate(-0.6)" width="6.72" height="6.48" rx="1.39"/>
<rect fill="#005aa0" x="139.56" y="50.99" width="6.58" height="6.38" rx="1.14"/>
<rect fill="#005aa0" x="-3.27" y="-3.20" transform="translate(153.23,54.20) rotate(-0.7)" width="6.54" height="6.40" rx="1.22"/>
<rect fill="#005aa0" x="-3.24" y="-3.19" transform="translate(237.99,54.18) rotate(-0.3)" width="6.48" height="6.38" rx="1.03"/>
<rect fill="#005aa0" x="-3.27" y="-3.20" transform="translate(248.44,54.19) rotate(-0.7)" width="6.54" height="6.40" rx="1.25"/>
<rect fill="#005aa0" x="-3.26" y="-3.19" transform="translate(308.95,54.18) rotate(-0.3)" width="6.52" height="6.38" rx="0.95"/>
<rect fill="#005aa0" x="-3.25" y="-3.20" transform="translate(319.33,54.20) rotate(0.4)" width="6.50" height="6.40" rx="1.15"/>
<path fill="#005aa0" d="
  M 117.97 86.09
  C 121.72 86.22 126.14 86.66 128.94 83.60
  Q 131.29 81.02 132.67 77.51
  Q 132.84 77.10 133.30 76.99
  Q 133.97 76.82 133.87 77.50
  Q 133.11 82.36 133.21 87.99
  Q 133.23 88.75 132.47 88.75
  L 106.24 88.75
  Q 103.99 88.75 105.97 87.67
  Q 106.94 87.14 108.01 86.87
  Q 109.27 86.54 109.27 85.23
  L 109.27 55.18
  A 1.99 1.99 0.0 0 0 107.94 53.30
  L 105.63 52.47
  Q 105.29 52.35 105.20 51.99
  Q 105.16 51.84 105.23 51.68
  Q 105.31 51.50 105.51 51.50
  L 120.85 51.47
  Q 121.23 51.47 121.21 51.85
  L 121.20 52.20
  Q 121.19 52.63 120.75 52.69
  Q 118.91 52.93 117.71 54.03
  A 1.55 1.54 69.1 0 0 117.20 55.18
  L 117.21 85.30
  A 0.79 0.78 -89.3 0 0 117.97 86.09
  Z"
/>
<path fill="#005aa0" d="
  M 201.44 63.48
  C 197.90 64.50 198.57 68.33 201.44 69.68
  C 206.59 72.08 213.76 73.18 213.44 80.68
  C 213.02 90.73 201.65 89.60 194.68 87.81
  A 1.18 1.17 7.2 0 1 193.80 86.69
  L 193.72 81.74
  Q 193.67 77.89 195.35 81.35
  Q 197.71 86.20 202.68 86.70
  Q 205.53 86.99 207.22 84.95
  C 208.70 83.16 207.52 80.71 205.64 79.84
  Q 203.22 78.73 200.54 77.86
  C 195.40 76.19 192.78 72.08 193.93 66.52
  C 195.41 59.37 205.74 60.36 210.76 61.19
  A 0.78 0.77 -86.8 0 1 211.41 61.92
  L 211.72 68.44
  Q 211.74 68.83 211.34 68.80
  Q 211.19 68.79 211.04 68.72
  Q 210.86 68.63 210.76 68.46
  C 208.48 64.62 206.04 62.17 201.44 63.48
  Z"
/>
<path fill="#005aa0" d="
  M 288.29 63.25
  C 284.13 63.79 284.18 68.31 287.66 69.84
  C 293.25 72.31 299.92 73.33 299.40 81.24
  C 298.77 90.69 287.55 89.46 280.53 87.80
  Q 279.93 87.66 279.89 87.05
  Q 279.73 84.51 279.73 81.75
  Q 279.72 77.88 281.40 81.36
  C 283.31 85.33 287.61 87.94 291.79 86.12
  C 295.33 84.58 293.94 80.62 290.91 79.44
  C 285.55 77.36 280.02 76.51 279.76 69.27
  C 279.39 59.19 290.55 60.17 296.94 61.19
  A 0.46 0.46 0.0 0 1 297.33 61.63
  Q 297.47 64.99 297.90 68.43
  Q 298.00 69.24 297.29 68.84
  Q 297.17 68.78 297.05 68.73
  A 0.92 0.90 86.0 0 1 296.49 68.23
  Q 293.97 62.53 288.29 63.25
  Z"
/>
<path fill="#005aa0" d="
  M 430.30 88.50
  Q 425.30 83.90 430.45 77.80
  Q 430.91 77.26 430.31 76.88
  C 427.64 75.15 427.03 71.42 427.36 68.50
  C 428.09 62.08 433.73 60.44 439.34 60.60
  Q 447.15 60.82 454.21 61.10
  A 0.49 0.49 0.0 0 1 454.68 61.56
  L 454.70 61.85
  Q 454.71 62.07 454.49 62.11
  L 450.17 62.90
  Q 449.52 63.03 449.87 63.59
  C 452.58 67.94 453.18 76.78 446.10 77.88
  Q 440.62 78.73 434.29 78.08
  Q 432.36 77.88 432.53 79.82
  Q 432.56 80.19 432.58 80.41
  Q 432.76 82.44 434.80 82.37
  Q 442.77 82.07 448.00 82.67
  Q 452.15 83.15 452.58 87.81
  C 452.96 91.86 453.40 98.54 447.77 99.38
  C 442.93 100.11 437.32 99.87 432.64 99.51
  C 425.50 98.96 427.69 92.84 430.37 89.21
  Q 430.65 88.82 430.30 88.50
  Z
  M 443.5406 66.2749
  A 3.07 3.07 0.0 0 0 440.4439 63.2318
  L 438.5040 63.2487
  A 3.07 3.07 0.0 0 0 435.4609 66.3454
  L 435.5194 73.0451
  A 3.07 3.07 0.0 0 0 438.6161 76.0882
  L 440.5560 76.0713
  A 3.07 3.07 0.0 0 0 443.5991 72.9746
  L 443.5406 66.2749
  Z
  M 432.02 90.81
  L 432.02 95.67
  A 1.52 1.52 0.0 0 0 433.54 97.19
  L 444.17 97.19
  A 3.07 2.52 -0.0 0 0 447.24 94.67
  L 447.24 91.81
  A 3.07 2.52 0.0 0 0 444.17 89.29
  L 433.54 89.29
  A 1.52 1.52 0.0 0 0 432.02 90.81
  Z"
/>
<path fill="#005aa0" d="
  M 142.26 65.17
  C 143.17 65.66 144.03 66.48 144.00 67.59
  Q 143.88 71.62 139.71 71.56
  C 138.07 71.54 136.57 70.68 136.44 68.92
  Q 136.05 63.96 140.98 62.25
  Q 146.78 60.25 152.43 61.07
  C 156.69 61.69 158.46 65.55 158.36 69.59
  Q 158.19 77.00 158.35 84.55
  Q 158.39 86.84 160.66 87.11
  Q 161.09 87.16 161.52 87.17
  Q 164.31 87.25 164.31 84.46
  L 164.29 65.39
  A 2.68 2.67 8.5 0 0 162.39 62.83
  L 160.57 62.28
  Q 159.95 62.09 160.32 61.55
  Q 160.62 61.09 161.17 61.12
  Q 165.77 61.36 170.32 61.15
  Q 170.96 61.13 170.97 61.77
  L 171.00 63.51
  A 0.41 0.41 0.0 0 0 171.63 63.85
  C 175.87 61.09 184.32 58.69 187.83 63.64
  Q 189.01 65.31 189.04 69.14
  Q 189.11 76.45 188.98 84.99
  Q 188.95 86.90 192.52 87.46
  Q 193.08 87.55 192.98 88.11
  L 192.93 88.39
  Q 192.90 88.63 192.65 88.63
  L 177.82 88.65
  Q 177.00 88.65 177.36 87.92
  Q 177.42 87.78 177.51 87.67
  Q 177.73 87.38 178.08 87.30
  Q 179.03 87.07 179.94 86.83
  A 1.73 1.71 82.9 0 0 181.23 85.16
  L 181.23 66.76
  Q 181.23 64.28 178.76 64.42
  L 173.01 64.74
  Q 171.81 64.81 171.81 66.02
  Q 171.79 74.50 171.85 84.15
  Q 171.87 87.29 174.87 87.16
  A 0.91 0.90 79.9 0 1 175.77 87.79
  L 175.87 88.11
  Q 176.10 88.82 175.35 88.78
  Q 166.90 88.27 157.67 89.11
  Q 153.96 89.44 151.58 87.45
  Q 151.02 86.99 150.37 87.30
  C 145.35 89.73 136.25 91.22 135.72 83.11
  C 135.50 79.66 135.85 75.54 139.99 74.67
  Q 144.64 73.70 149.82 74.10
  Q 151.01 74.19 150.96 73.00
  L 150.66 66.13
  A 1.74 1.73 -87.4 0 0 149.16 64.48
  Q 145.80 64.05 142.45 64.30
  Q 140.88 64.41 142.26 65.17
  Z
  M 150.83 85.26
  L 150.73 77.04
  A 0.78 0.78 0.0 0 0 149.94 76.27
  L 147.08 76.31
  A 3.78 3.69 -0.7 0 0 143.35 80.05
  L 143.37 82.45
  A 3.78 3.69 -0.7 0 0 147.20 86.09
  L 150.06 86.05
  A 0.78 0.78 0.0 0 0 150.83 85.26
  Z"
/>
<path fill="#005aa0" d="
  M 256.5362 79.9504
  A 9.06 9.06 0.0 0 1 247.5237 89.0577
  L 239.0838 89.1019
  A 9.06 9.06 0.0 0 1 229.9765 80.0895
  L 229.9238 70.0296
  A 9.06 9.06 0.0 0 1 238.9363 60.9223
  L 247.3762 60.8781
  A 9.06 9.06 0.0 0 1 256.4835 69.8905
  L 256.5362 79.9504
  Z
  M 248.3544 66.8290
  A 3.74 3.74 0.0 0 0 244.6209 63.0825
  L 241.8009 63.0776
  A 3.74 3.74 0.0 0 0 238.0544 66.8110
  L 238.0256 83.2710
  A 3.74 3.74 0.0 0 0 241.7591 87.0175
  L 244.5791 87.0224
  A 3.74 3.74 0.0 0 0 248.3256 83.2890
  L 248.3544 66.8290
  Z"
/>
<path fill="#005aa0" d="
  M 406.45 63.87
  C 412.74 60.10 424.42 57.91 424.09 69.19
  Q 423.84 77.48 424.07 85.77
  Q 424.08 86.19 424.41 86.45
  Q 425.21 87.07 426.33 87.48
  Q 426.80 87.66 427.02 88.07
  Q 427.11 88.23 427.13 88.41
  Q 427.17 88.80 426.79 88.79
  L 413.29 88.72
  Q 411.04 88.71 413.04 87.68
  Q 414.09 87.15 415.15 86.80
  A 1.67 1.66 -9.2 0 0 416.29 85.22
  L 416.30 67.04
  Q 416.30 64.77 414.02 64.72
  Q 411.23 64.66 407.96 64.94
  Q 406.98 65.02 406.98 66.00
  L 406.98 85.53
  Q 406.98 86.27 407.63 86.63
  Q 408.96 87.37 410.52 87.68
  A 0.44 0.43 5.8 0 1 410.87 88.10
  L 410.87 88.37
  Q 410.87 88.75 410.49 88.75
  L 381.79 88.74
  Q 380.28 88.74 381.53 87.90
  Q 382.51 87.25 383.69 86.97
  A 1.99 1.99 0.0 0 0 385.21 85.04
  L 385.21 65.09
  A 2.22 2.22 0.0 0 0 383.36 62.90
  Q 382.19 62.70 381.18 61.95
  A 0.44 0.44 0.0 0 1 381.45 61.16
  L 392.09 61.25
  Q 392.67 61.26 392.67 61.84
  L 392.62 84.06
  Q 392.61 87.18 395.73 87.36
  Q 395.96 87.37 396.18 87.37
  Q 399.24 87.35 399.26 84.29
  Q 399.32 75.10 399.23 65.24
  C 399.21 63.15 397.45 62.76 395.84 62.41
  Q 395.45 62.32 395.29 61.97
  Q 395.21 61.80 395.23 61.64
  Q 395.27 61.16 395.75 61.16
  L 405.19 61.25
  Q 405.76 61.25 405.75 61.82
  L 405.72 63.44
  Q 405.70 64.32 406.45 63.87
  Z"
/>
<path fill="#005aa0" d="
  M 460.35 65.05
  Q 460.55 65.21 460.81 65.25
  Q 461.34 65.34 461.65 65.77
  Q 462.49 66.89 462.26 68.51
  C 461.65 72.76 454.97 72.55 454.76 68.62
  C 454.55 64.39 457.82 62.41 461.53 61.60
  C 467.91 60.20 476.58 59.68 476.71 68.47
  Q 476.83 75.84 476.79 84.24
  Q 476.78 87.14 479.68 87.17
  Q 479.82 87.17 480.08 87.17
  Q 482.85 87.19 482.84 84.43
  Q 482.82 75.05 482.83 65.18
  C 482.84 63.29 480.61 62.60 479.13 62.30
  Q 478.55 62.19 478.75 61.63
  Q 478.93 61.12 479.47 61.14
  Q 484.81 61.33 489.95 61.19
  A 0.35 0.35 0.0 0 1 490.31 61.54
  L 490.28 84.69
  A 2.27 2.27 0.0 0 0 492.30 86.95
  Q 493.27 87.05 493.59 87.28
  Q 495.67 88.76 493.12 88.67
  Q 484.36 88.33 475.10 89.12
  Q 472.20 89.37 470.07 87.45
  Q 469.62 87.04 469.06 87.28
  C 465.12 88.97 456.24 91.34 454.50 85.29
  C 453.32 81.21 453.91 75.32 459.04 74.50
  Q 463.87 73.72 468.05 74.10
  Q 469.43 74.23 469.34 72.75
  Q 469.34 72.74 468.95 66.34
  Q 468.85 64.66 467.17 64.44
  Q 463.79 64.00 460.54 64.37
  Q 459.63 64.48 460.35 65.05
  Z
  M 469.13 85.52
  L 469.03 76.80
  A 0.50 0.50 0.0 0 0 468.52 76.30
  L 465.42 76.34
  A 3.56 3.11 -0.7 0 0 461.90 79.49
  L 461.94 82.99
  A 3.56 3.11 -0.7 0 0 465.54 86.06
  L 468.64 86.02
  A 0.50 0.50 0.0 0 0 469.13 85.52
  Z"
/>
<path fill="#005aa0" d="
  M 260.13 86.51
  A 1.17 1.17 0.0 0 0 260.75 85.48
  L 260.75 64.78
  A 1.31 1.28 -69.1 0 0 260.34 63.83
  Q 259.10 62.65 257.27 62.40
  A 0.59 0.59 0.0 0 1 256.76 61.77
  L 256.78 61.45
  A 0.33 0.33 0.0 0 1 257.11 61.15
  L 268.05 61.26
  A 0.29 0.29 0.0 0 1 268.34 61.55
  L 268.33 85.00
  A 2.01 2.01 0.0 0 0 269.78 86.93
  Q 270.57 87.16 271.33 87.53
  Q 273.87 88.76 271.05 88.76
  L 257.19 88.74
  Q 256.80 88.74 256.72 88.36
  Q 256.69 88.22 256.75 88.08
  Q 256.86 87.84 257.13 87.76
  Q 258.77 87.25 260.13 86.51
  Z"
/>
<path fill="#005aa0" d="
  M 348.71 62.52
  L 346.10 61.92
  Q 345.97 61.89 345.98 61.75
  L 346.00 61.45
  Q 346.03 61.13 346.35 61.13
  L 355.28 61.18
  A 0.48 0.48 0.0 0 1 355.74 61.53
  L 355.81 61.78
  Q 355.88 62.05 355.61 62.08
  Q 352.89 62.44 351.02 64.45
  Q 348.24 67.46 345.37 70.62
  A 0.54 0.53 48.7 0 0 345.33 71.30
  Q 350.01 77.90 354.81 84.86
  Q 357.65 88.99 361.61 86.41
  A 0.85 0.84 -16.5 0 0 362.00 85.70
  L 362.00 64.52
  Q 362.00 63.95 361.55 63.62
  Q 360.14 62.57 358.18 62.22
  Q 357.96 62.19 357.99 61.96
  L 358.04 61.62
  A 0.53 0.51 -85.7 0 1 358.56 61.16
  L 369.12 61.26
  Q 369.72 61.27 369.72 61.87
  L 369.71 85.02
  A 1.88 1.88 0.0 0 0 371.01 86.81
  Q 371.97 87.12 373.00 87.43
  Q 373.38 87.54 373.60 87.88
  Q 373.69 88.02 373.74 88.19
  Q 373.88 88.66 373.39 88.66
  L 344.45 88.64
  Q 344.14 88.64 343.94 88.41
  Q 343.82 88.27 343.91 88.10
  Q 343.97 87.97 344.10 87.92
  L 346.56 86.92
  A 0.58 0.57 61.4 0 0 346.81 86.06
  L 339.07 74.79
  Q 338.61 74.11 339.18 73.52
  L 348.97 63.42
  A 0.54 0.54 0.0 0 0 348.71 62.52
  Z"
/>
<rect fill="#005aa0" x="-3.83" y="-3.88" transform="translate(274.55,65.10) rotate(0.4)" width="7.66" height="7.76" rx="1.67"/>
<rect fill="#005aa0" x="372.00" y="61.23" width="7.72" height="7.76" rx="1.61"/>
<rect fill="#005aa0" x="-3.78" y="-3.87" transform="translate(496.49,65.10) rotate(0.1)" width="7.56" height="7.74" rx="1.52"/>
</svg>
