<?xml version="1.0" encoding="UTF-8" standalone="no"?>
<svg
   class="n-logo"
   aria-label="Länk Hem"
   alt="SBAB Logotype"
   viewBox="0 0 400 124.49932"
   fill="none"
   version="1.1"
   style="text-align:center;inline-size:474px;fill:none"
   id="svg6"
   sodipodi:docname="SBAB Logo 17.09.2024.svg"
   width="400"
   height="124.49932"
   inkscape:version="1.3.2 (091e20e, 2023-11-25, custom)"
   xmlns:inkscape="http://www.inkscape.org/namespaces/inkscape"
   xmlns:sodipodi="http://sodipodi.sourceforge.net/DTD/sodipodi-0.dtd"
   xmlns="http://www.w3.org/2000/svg"
   xmlns:svg="http://www.w3.org/2000/svg">
  <defs
     id="defs6" />
  <sodipodi:namedview
     id="namedview6"
     pagecolor="#ffffff"
     bordercolor="#111111"
     borderopacity="1"
     inkscape:showpageshadow="0"
     inkscape:pageopacity="0"
     inkscape:pagecheckerboard="1"
     inkscape:deskcolor="#d1d1d1"
     inkscape:zoom="3.2375"
     inkscape:cx="200"
     inkscape:cy="62.239382"
     inkscape:window-width="1920"
     inkscape:window-height="1129"
     inkscape:window-x="-8"
     inkscape:window-y="-8"
     inkscape:window-maximized="1"
     inkscape:current-layer="svg6" />
  <path
     d="m 41.360662,116.70047 c 23.813522,0 38.087947,-11.62824 38.087947,-30.358946 0,-13.856385 -10.165982,-23.395834 -29.801915,-28.687845 l -9.53945,-2.576333 C 25.972166,51.317447 21.585381,46.512621 21.585381,39.828197 c 0,-8.634117 7.937841,-13.229746 18.243169,-13.229746 11.280052,0 17.894978,5.7097 18.382517,14.970349 H 76.73293 C 76.524086,22.977546 61.344434,10.931261 39.82855,10.931261 c -20.54116,0 -36.7650325,11.141058 -36.7650325,29.662463 0,13.856384 8.6342225,24.022719 25.9026685,28.548498 l 9.608947,2.506835 c 16.293722,4.247438 22.281763,8.982414 22.281763,16.015029 0,9.051911 -8.70372,13.369194 -19.496587,13.369194 -12.742314,0 -22.142416,-6.614921 -22.838798,-17.755627 H 0 c 0.76587939,20.750007 17.129099,33.422817 41.360662,33.422817 z"
     fill="currentColor"
     style="d:path('M 11.7243 33.0805 C 18.4746 33.0805 22.5209 29.7843 22.5209 24.4748 C 22.5209 20.547 19.6392 17.8429 14.0731 16.3428 L 11.369 15.6125 C 7.3622 14.5467 6.1187 13.1847 6.1187 11.2899 C 6.1187 8.84243 8.3688 7.53973 11.29 7.53973 C 14.4875 7.53973 16.3626 9.15823 16.5008 11.7833 H 21.7511 C 21.6919 6.51333 17.389 3.09863 11.29 3.09863 C 5.4673 3.09863 0.8684 6.25673 0.8684 11.5069 C 0.8684 15.4347 3.3159 18.3165 8.2109 19.5994 L 10.9347 20.31 C 15.5534 21.514 17.2508 22.8562 17.2508 24.8497 C 17.2508 27.4156 14.7836 28.6394 11.7242 28.6394 C 8.1122 28.6394 5.4476 26.7643 5.2502 23.6063 H 0 C 0.2171 29.4882 4.8555 33.0805 11.7243 33.0805 Z');text-align:center;stroke-width:3.52777"
     id="path1" />
  <path
     d="M 383.14783,83.696047 400,4.3169351 379.38723,0 362.53859,79.309262 Z"
     fill="#FF620F"
     style="d:path('M 108.609 23.7249 L 113.386 1.2237 L 107.543 0 L 102.767 22.4814 L 108.609 23.7249 Z');text-align:center;fill:#ff620f;stroke-width:3.52777"
     id="path2" />
  <path
     d="m 381.26753,124.49932 c 7.58824,0 13.85709,-5.7792 13.85709,-13.57804 0,-7.79885 -6.1983,-13.647543 -13.85709,-13.647543 -7.6588,0 -13.78654,5.849043 -13.78654,13.647543 0,7.79849 6.1983,13.57804 13.78654,13.57804 z"
     fill="#FF620F"
     style="d:path('M 108.076 35.2912 C 110.227 35.2912 112.004 33.653 112.004 31.4423 C 112.004 29.2316 110.247 27.5737 108.076 27.5737 C 105.905 27.5737 104.168 29.2317 104.168 31.4423 C 104.168 33.6529 105.925 35.2912 108.076 35.2912 Z');text-align:center;fill:#ff620f;stroke-width:3.52777"
     id="path3" />
  <path
     d="M 327.51239,62.876898 V 60.50941 c 12.04593,-2.855026 17.82548,-10.931861 17.82548,-21.65523 0,-14.622229 -10.37482,-25.972131 -36.208,-25.972131 H 271.73831 V 114.75173 h 40.94297 c 27.43443,0 37.39157,-12.46397 37.39157,-27.643269 0,-13.090857 -7.58965,-21.446386 -22.56046,-24.231563 z m -37.8791,-34.328012 h 20.68015 c 11.00171,0 16.98975,4.177941 16.98975,12.951123 0,8.773217 -5.98839,13.369199 -16.98975,13.369199 h -20.68015 z m 23.81387,70.53601 H 289.63364 V 70.397051 h 23.81352 c 12.39413,0 18.59136,5.431358 18.59136,14.204575 0,8.773217 -6.19723,14.48327 -18.59136,14.48327 z"
     fill="currentColor"
     style="d:path('M 92.8383 17.8234 V 17.1523 C 96.2529 16.343 97.8912 14.0535 97.8912 11.0138 C 97.8912 6.86891 94.9503 3.65161 87.6275 3.65161 H 77.0283 V 32.5281 H 88.6342 C 96.4109 32.5281 99.2334 28.995 99.2334 24.6922 C 99.2334 20.9814 97.082 18.6129 92.8383 17.8234 Z M 82.1009 8.09261 H 87.963 C 91.0816 8.09261 92.779 9.27691 92.779 11.7638 C 92.779 14.2507 91.0815 15.5535 87.963 15.5535 H 82.1009 V 8.09261 Z M 88.8513 28.0871 H 82.101 V 19.9551 H 88.8513 C 92.3646 19.9551 94.1213 21.4947 94.1213 23.9816 C 94.1213 26.4685 92.3646 28.0871 88.8513 28.0871 Z');text-align:center;stroke-width:3.52777"
     id="path4" />
  <path
     d="M 145.76367,62.876898 V 60.50941 c 12.04594,-2.855026 17.82549,-10.931861 17.82549,-21.65523 0,-14.622229 -10.37483,-25.972131 -36.208,-25.972131 H 89.98924 V 114.75173 h 40.94297 c 27.43443,0 37.39157,-12.46397 37.39157,-27.643269 0,-13.090857 -7.58965,-21.446386 -22.56011,-24.231563 z M 108.30226,28.548886 h 20.68015 c 11.00172,0 16.98976,4.177941 16.98976,12.951123 0,8.773217 -5.9884,13.369199 -16.98976,13.369199 h -20.68015 z m 23.81352,70.53601 H 108.30226 V 70.397051 h 23.81352 c 12.39412,0 18.59136,5.431358 18.59136,14.204575 0,8.773217 -6.19688,14.48327 -18.59136,14.48327 z"
     fill="currentColor"
     style="d:path('M 41.3189 17.8234 V 17.1523 C 44.7335 16.343 46.3718 14.0535 46.3718 11.0138 C 46.3718 6.86891 43.4309 3.65161 36.1081 3.65161 H 25.5088 V 32.5281 H 37.1147 C 44.8914 32.5281 47.7139 28.995 47.7139 24.6922 C 47.7139 20.9814 45.5625 18.6129 41.3189 17.8234 Z M 30.6999 8.09261 H 36.562 C 39.6806 8.09261 41.378 9.27691 41.378 11.7638 C 41.378 14.2507 39.6805 15.5535 36.562 15.5535 H 30.6999 V 8.09261 Z M 37.4502 28.0871 H 30.6999 V 19.9551 H 37.4502 C 40.9635 19.9551 42.7202 21.4947 42.7202 23.9816 C 42.7202 26.4685 40.9636 28.0871 37.4502 28.0871 Z');text-align:center;stroke-width:3.52777"
     id="path5" />
  <path
     d="m 245.54389,114.75173 h 20.05363 L 228.76299,12.882049 H 205.78484 L 168.67162,114.75173 h 19.0789 l 9.15845,-26.042013 H 236.5008 Z M 202.12513,73.878609 215.32429,36.347697 h 2.99402 l 13.03265,37.530912 z"
     fill="currentColor"
     style="d:path('M 69.6031 32.5281 H 75.2876 L 64.8463 3.65161 H 58.3328 L 47.8125 32.5281 H 53.2207 L 55.8168 25.1461 H 67.0397 L 69.6031 32.5281 Z M 57.2954 20.942 L 61.0369 10.3033 H 61.8856 L 65.5799 20.942 H 57.2954 Z');text-align:center;stroke-width:3.52777"
     id="path6" />
</svg>
